<?xml version="1.0" encoding="iso-8859-1"?>
<!-- Generator: Adobe Illustrator 25.1.0, SVG Export Plug-In . SVG Version: 6.00 Build 0)  -->
<svg version="1.1" id="Layer_1" xmlns="http://www.w3.org/2000/svg" xmlns:xlink="http://www.w3.org/1999/xlink" x="0px" y="0px"
	  viewBox="0 0 720 654.429" enable-background="new 0 0 720 654.429" xml:space="preserve">
<g>
	<path d="M716.58,247.218c-16.096-42.627-37.924-83.546-58.459-123.434c-0.805-2.137-3.693-3.078-5.668-1.547
		c-57.173,31.05-132.979,79.26-180.95,111.877c-3.676,2.313-3.931,3.554-1.331,7.049c24.194,35.256,48.227,70.63,72.493,105.831
		c-19.656,7.439-38.628,12.249-52.795,20.409c-0.942,2.441,4.77,13.214,5.466,15.865c16.702,50.016,30.598,35.302-14.184,56.548
		c-7.357,1.923-0.192,9.269,1.049,13.331c4.267,8.538,8.195,17.26,12.615,25.709c-7.367,3.757-15.092,7.686-22.516,11.478
		c-12.879-65.096-30.966-128.839-39.422-194.93c-6.326-41.081-4.411-89.788-26.012-125.617
		c29.932-6.889,63.101-15.023,94.144-33.363c32.836-17.695,72.307-44.255,89.649-77.92c-60.861-3.386-112.917,7.131-170.654,35.556
		c-21.451,10.612-38.28,20.935-52.964,32.488c-4.912,0.193-10.581-6.127-15.841-7.011c-46.23-18.297-110.605-18.786-159.571,3.017
		c-4.381,2.796-4.901,3.649-7.677-1.57C131.845,62.891,75.477,16.822,2.929,2.321C21.903,67.126,93.205,133.52,148.272,161.089
		c-10.647,19.597-13.836,36.382-15.728,61.836c2.339,31.111-24.086,45.805-13.177,73.423c8.327,19.31,20.951,33.563,36.157,49.473
		c0.648,0.904,0.959,0.461,0.211,1.377c-2.492,2.673-4.274,5.793-6.115,8.825c-27.463,43.628-20.785,95.428,9.195,136.846
		c-20.593,39.57-34.876,74.971,8.801,104.809c-8.239,7.678-30.316,38.31-9.178,42.438c9.048,5.023,41.138-20.671,48.263-28.825
		c26.21-1.697,50.673-1.643,73.026-6.078c27.59,2.536,50.555,10.662,77.559,13.351c-2.912,4.761-15.164,30.587-4.456,30.865
		c1.714-0.066,2.175-0.036,2.507,1.316c5.627,3.484,16.421-0.43,21.569-3.747c17.246-11.177,28.862-21.466,37.666-33.362
		c12.992-6.932,24.778-14.999,32.965-27.623c21.748-27.774,24.618-51.342,27.934-75.619c6.762-4.464,52.26-12.852,46.038-20.945
		c-4.036-9.45-8.096-19.073-12.203-28.474c-0.462-1.77-0.889-0.871,0.603-1.83c7.91-5.744,46.542-14.77,43.563-24.022
		c-13.344-59.047-29.719-42.27,24.954-61.882c3.49-1.971,16.53-2.741,12.636-9.488c-6.513-20.701-13.099-42.04-19.669-62.687
		c-0.308-2.063-0.891-1.144,0.973-2.005c49.218-13.816,97.4-29.591,141.768-46.524C716.313,252.245,717.924,249.097,716.58,247.218z
		"/>
	<path d="M175.05,206.157c-6.753-1.187-12.891,0.346-17.873,5.31c-8.027,7.998-10.039,23.587-4.37,33.374
		c6.151,10.616,20.862,12.252,29.265,3.353c5.038-5.335,5.818-11.925,6.033-18.749c0.073-4.365-0.465-8.651-2.162-12.673
		C183.823,211.744,180.955,207.195,175.05,206.157z M178.49,227.8c-3.015,2.89-6.931,2.313-9.161-1.227
		c-2.042-3.242-1.59-8.684,0.97-11.644c3.188-3.687,8.027-2.997,10.02,1.454c0.746,1.664,0.9,3.466,0.997,5.258
		C181.51,224.219,180.203,226.159,178.49,227.8z M330.504,299.994c-0.65,16.08,12.831,30.526,30.852,30.654
		c17.199,0.124,31.29-13.912,31.185-30.871c-0.106-16.913-14.077-30.613-31.203-30.598
		C344.202,269.193,330.478,282.906,330.504,299.994z M361.849,271.169c16.32,0.238,28.914,13.132,28.712,29.4
		c-0.195,15.701-13.402,28.305-29.461,28.112c-15.556,0.005-29.369-12.573-28.845-29.742
		C332.721,283.61,345.961,270.937,361.849,271.169z M341.507,255.202c7.778-4.131,10.246-11.869,10.356-19.031
		c0.911-19.714-19.539-33.797-36.609-26.573c-9.963,4.216-14.862,12.776-13.728,25.181
		C303.233,253.396,322.411,265.348,341.507,255.202z M319.852,214.126c4.745-0.067,8.556,3.855,8.579,8.819
		c0.023,6.453-3.999,10.613-10.294,10.644c-5.468,0.029-8.535-3.142-8.538-8.82C309.599,218.861,314.083,214.207,319.852,214.126z
		 M403.775,432.513c-0.934,3.108-2.296,6.035-3.77,8.914c-6.74,13.182-14.699,25.509-25.227,36.037
		c-9.047,8.113-18.45,15.762-28.939,21.974c-2.858,1.694-5.62,3.664-8.671,4.906c-7.245,2.95-13.726,6.82-19.017,12.716
		c-2.342,2.606-3.567,2.332-5.051-0.739c-1.281-2.658-2.543-3.214-5.206-1.666c-3.062,1.781-3.193,1.557-4.816-1.612
		c-0.124-0.239-0.257-0.475-0.379-0.716c-1.756-3.434-1.788-3.542-5.477-2.388c-2.271,0.71-3.703,0.45-3.988-2.176
		c-0.298-2.778-1.456-4.171-4.513-3.218c-2.11,0.657-3.015-0.434-2.868-2.544c0.043-0.624-0.085-1.272,0.018-1.885
		c0.39-2.323-0.543-3.136-2.889-3.241c-3.485-0.156-3.968-0.884-1.972-3.547c3.637-4.846,3.414-10.408,3.699-15.918
		c1.366-26.315,9.607-50.287,24.426-72.043c7.53-11.056,17.03-20.156,27.709-28.097c0.408-0.303,0.785-0.788,1.634-0.439
		c0.009,1.221-1.148,1.635-1.855,2.223c-10.925,9.068-20.888,19.029-28.439,31.141c-11.423,18.322-19.031,38.01-20.835,59.708
		c-0.225,2.686-0.684,5.356-0.808,8.044c-0.265,5.813,0.241,11.777-4.944,17.108c6.004-0.67,6.755,2.337,6.243,6.366
		c-0.17,1.347,0.629,1.297,1.699,1.168c4.086-0.505,4.137-0.473,5.184,3.581c0.376,1.472,0.592,2.376,2.608,1.758
		c4.577-1.405,4.743-1.32,6.8,3.122c0.996,2.153,1.906,2.654,4.123,1.497c4.091-2.14,3.444-2.406,5.751,1.71
		c1.536,2.734,1.816,2.932,3.887,0.535c4.656-5.383,10.677-8.42,16.951-11.48c13.147-6.41,25.028-14.819,35.705-24.865
		c6.325-5.404,11.719-11.639,16.325-18.54c5.932-8.898,11.506-18.009,15.629-27.929c0.193-0.466,0.542-0.872,0.861-1.371
		C404.324,431.19,403.97,431.868,403.775,432.513z M716.58,247.218c-16.096-42.627-37.924-83.547-58.459-123.434
		c-0.805-2.137-3.693-3.078-5.668-1.547c-57.173,31.05-132.979,79.26-180.95,111.877c-3.676,2.313-3.931,3.554-1.331,7.049
		c24.194,35.256,48.227,70.63,72.493,105.831c-19.656,7.439-38.628,12.249-52.795,20.409c-0.942,2.441,4.77,13.214,5.466,15.865
		c16.702,50.016,30.598,35.302-14.184,56.548c-7.358,1.923-0.192,9.269,1.049,13.331c4.267,8.538,8.195,17.26,12.615,25.709
		c-7.367,3.757-15.092,7.686-22.516,11.478c-12.879-65.096-30.966-128.839-39.422-194.93c-6.325-41.081-4.411-89.788-26.012-125.617
		c29.932-6.889,63.101-15.023,94.144-33.363c32.836-17.695,72.307-44.255,89.649-77.92c-60.861-3.386-112.917,7.131-170.654,35.556
		c-21.451,10.612-38.28,20.935-52.964,32.488c-4.912,0.193-10.581-6.127-15.841-7.011c-46.23-18.297-110.605-18.786-159.571,3.017
		c-4.381,2.796-4.901,3.649-7.677-1.57C131.845,62.891,75.477,16.822,2.929,2.321C21.903,67.126,93.204,133.52,148.272,161.089
		c-10.647,19.597-13.836,36.382-15.728,61.836c2.339,31.111-24.086,45.805-13.177,73.422c8.327,19.31,20.951,33.563,36.157,49.473
		c0.648,0.904,0.959,0.461,0.211,1.377c-2.492,2.673-4.274,5.793-6.115,8.825c-27.463,43.628-20.785,95.428,9.195,136.846
		c-20.593,39.57-34.876,74.971,8.8,104.809c-8.239,7.678-30.316,38.31-9.178,42.438c9.048,5.023,41.138-20.671,48.263-28.825
		c26.21-1.697,50.673-1.643,73.026-6.079c27.59,2.536,50.555,10.662,77.559,13.351c-2.912,4.761-15.164,30.587-4.456,30.865
		c1.714-0.066,2.175-0.036,2.507,1.316c5.627,3.484,16.421-0.43,21.569-3.747c17.245-11.177,28.862-21.466,37.666-33.362
		c12.992-6.932,24.778-14.999,32.965-27.623c21.748-27.774,24.618-51.342,27.934-75.619c6.762-4.464,52.26-12.853,46.038-20.945
		c-4.036-9.45-8.096-19.073-12.203-28.474c-0.462-1.77-0.889-0.871,0.603-1.83c7.91-5.744,46.542-14.77,43.563-24.022
		c-13.344-59.047-29.719-42.27,24.954-61.882c3.49-1.971,16.53-2.741,12.635-9.488c-6.513-20.701-13.099-42.04-19.669-62.687
		c-0.308-2.063-0.891-1.144,0.973-2.005c49.218-13.816,97.4-29.591,141.768-46.524C716.313,252.245,717.924,249.097,716.58,247.218z
		 M467.742,481.45c1.651,8.563,2.58,17.208,3.168,26.492c0.074,2.521,0.074,2.521-3.184,2.009
		c-10.558-1.664-20.684-4.456-29.607-10.705c-4.901-3.435-4.938-4.107,0.223-7.066c8.698-4.982,18.182-8.129,27.422-11.853
		C466.984,479.834,467.48,480.086,467.742,481.45z M445.129,382.956c1.809,8.673,3.687,17.333,5.634,25.976
		c0.331,1.467-0.087,1.814-1.393,1.538c-11.667-1.839-23.053-4.589-33.143-11.077c-5.349-3.439-5.303-4.94,0.046-8.244
		c8.287-5.122,17.608-7.424,26.938-9.685C444.436,381.168,444.87,381.702,445.129,382.956z M130.404,310.639
		c-4.818-8.221-9.799-16.338-11.08-26.092c-0.652-4.97,0.652-9.421,2.797-13.751c1.834-3.702,3.831-7.328,5.545-11.085
		c0.846-1.855,1.74-1.464,2.784-0.472c2.872,2.729,4.619,6.183,5.87,9.863c2.01,5.917,2.912,12.031,2.783,17.899
		c0.083,6.834-0.893,13.089-3.332,19.09c-0.724,1.782-1.762,3.309-3.13,4.659C131.779,311.602,131.168,311.943,130.404,310.639z
		 M392.218,632.005c-7.204,5.794-14.334,11.699-22.966,15.335c-1.233,0.521-2.856,1.864-3.857,0.836
		c-1.065-1.1,0.317-2.672,0.932-3.916c2.243-4.509,4.924-8.758,7.879-12.838c0.537-0.739,1.478-1.359,1.244-2.523
		c-0.842-0.452-1.162,0.259-1.524,0.682c-4.382,5.161-8.12,10.73-10.684,17.032c-0.679,1.676-3.182,2.927-4.83,2.454
		c-1.386-0.399-0.785-1.451-0.647-2.211c1.061-5.788,3.081-11.231,6.029-16.325c0.721-1.244,1.455-2.482,2.091-3.767
		c0.356-0.721,1.513-1.607,0.448-2.298c-1.056-0.684-1.469,0.648-1.912,1.339c-3.494,5.475-6.458,11.219-7.803,17.619
		c-0.448,2.135-1.671,2.7-3.466,2.996c-1.247,0.207-1.632-0.289-1.481-1.451c1.217-9.369,3.942-18.212,9.043-26.247
		c0.636-1.003,1.423-0.897,2.323-0.753c7.895-0.083,15.79,0.34,23.682-0.51c7.512-0.806,14.922-2.034,22.188-4.114
		c0.599-0.17,1.162-0.503,2.059-0.133C405.377,620.224,399.503,626.806,392.218,632.005z M455.196,568.718
		c-3.363,5.84-6.843,11.607-11.269,16.735c-10.606,15.643-25.42,24.601-43.866,28.154c-19.426,3.744-38.774,3.379-58.113-0.317
		c-15.512-2.961-30.962-6.267-46.494-9.128c-13.93-2.562-27.996-3.342-42.134-1.894c-0.228,0.023-0.443,0.174-0.667,0.753
		c5.281,0,10.562,0,15.844,0c0.013,0.246,0.025,0.491,0.039,0.737c-7.431,0.923-14.847,1.997-22.297,2.732
		c-10.744,1.06-21.518,1.327-32.313,0.659c-9.155-0.567-18.261-1.387-27.184-3.639c-0.435-0.11-0.875-0.22-1.319-0.266
		c-0.512-0.051-1.182-0.209-1.325,0.496c-0.137,0.675,0.508,0.919,1.004,1.033c3.407,0.799,6.803,1.655,10.24,2.296
		c3.06,0.567,6.167,0.882,9.742,1.372c-4.877,6.196-10.966,10.416-16.986,14.713c-0.001,0-0.001-0.001-0.001-0.002
		c0,0.001,0,0.001,0,0.002c-7.617,5.599-15.726,10.383-24.238,14.484c-0.751,0.36-1.739,1.125-2.471,0.459
		c-0.717-0.652-0.092-1.683,0.14-2.535c1.079-3.946,3.816-6.866,6.215-9.988c1.179-1.533,2.472-2.982,3.823-4.6
		c0.002-0.003,0.004-0.005,0.006-0.008c-0.004-0.002-0.007-0.002-0.01-0.003c-1.558-0.67-2.14,0.386-2.73,0.993
		c-3.886,4.004-7.677,8.088-9.312,13.639c-0.544,1.846-2.194,1.788-3.519,1.563c-1.694-0.287-1.151-1.743-0.886-2.84
		c1.502-6.224,4.674-11.612,8.388-16.736c0.598-0.824,1.64-1.419,1.27-2.846c-5.864,4.88-9.038,11.54-11.711,18.827
		c-1.918-7.179,7.57-25.87,16.73-33.501c1.42-2.925,3.924-0.464,5.796-0.96c0.048-0.799-0.45-0.907-0.821-1.088
		c-13.62-6.605-22.852-17.461-29.678-30.645c-0.116-0.227-0.102-0.519-0.149-0.783c-3.928-10.032-4.319-20.308-1.793-30.684
		c1.516-6.23,4.222-12.025,7.363-17.603c4.244-7.537,7.499-15.523,10.729-23.521c0.657-1.623,1.052-1.906,2.416-0.487
		c2.809,2.929,5.639,5.7,5.979,10.131c0.173,2.261,1.614,2.842,3.633,1.669c0.621-0.358,1.343-0.574,1.902-1.006
		c1.951-1.508,3.74-1.368,5.502,0.313c1.903,1.818,3.561,1.318,4.828-0.739c1.364-2.213,2.882-2.277,4.735-0.654
		c0.467,0.406,1.062,0.67,1.601,0.994c1.908,1.141,3.08,0.705,3.874-1.465c1.289-3.519,1.382-3.48,4.995-2.58
		c0.784,0.195,1.578,0.347,2.364,0.535c1.675,0.404,2.585-0.305,2.855-1.947c0.305-1.862,0.747-3.714,0.864-5.59
		c0.111-1.791,0.853-2.599,2.624-2.525c0.259,0.014,0.523-0.122,0.787-0.172c4.193-0.799,4.155-0.788,2.837-4.931
		c-0.818-2.573-0.108-5.193,0.122-7.755c1.356-15.078,2.014-30.154,0.314-45.243c-1.767-15.668-6.884-30.241-14.61-43.937
		c-0.172-0.303-0.42-0.576-0.676-0.817c-0.106-0.096-0.33-0.069-0.609-0.115c-0.593,1.083,0.311,1.813,0.687,2.608
		c5.823,12.303,10.807,24.885,12.789,38.46c1.817,12.429,1.778,24.92,1.031,37.422c-0.327,5.473-0.843,10.934-1.248,16.405
		c-0.06,0.801-0.278,1.782,0.075,2.395c1.993,3.453-0.254,3.859-2.778,3.928c-2.347,0.064-3.013,1.419-3.193,3.437
		c-0.191,2.133,0.171,4.947-1.287,6.127c-1.417,1.143-3.889-0.445-5.833-1.003c-2.08-0.594-2.468,0.668-2.996,2.082
		c-1.295,3.467-1.459,3.662-4.488,1.472c-2.516-1.818-4.113-1.341-5.731,0.994c-0.731,1.051-1.57,2.447-3.14,0.872
		c-2.327-2.337-4.647-1.864-7.225-0.253c-2.654,1.658-2.87,1.524-3.323-1.671c-0.336-2.369-1.506-4.066-3.093-5.773
		c-15.333-16.508-26.874-35.113-30.712-57.7c-5.304-31.224,0.937-60.03,18.751-86.258c2.972-4.376,3.067-4.291,7.002-0.907
		c7.437,6.394,15.027,12.594,23.101,18.177c0.518,0.358,1.008,0.771,1.561,1.058c0.57,0.296,1.255,1.228,1.818,0.347
		c0.518-0.81-0.541-1.185-1.049-1.57c-8.244-6.251-16.451-12.562-24.153-19.467c-11.49-10.301-21.596-21.877-30.659-34.361
		c-0.503-0.692-1.609-1.402-0.344-2.467c4.919-4.141,6.039-10.031,7.108-15.878c1.801-9.85,0.922-19.555-2.354-28.968
		c-1.532-4.403-3.51-8.72-7.864-11.238c-0.851-0.493-0.764-1.054-0.436-1.8c5.599-12.751,5.181-26.517,6.687-39.953
		c1.233-11.002,2.989-21.905,6.151-32.526c4.449-14.941,12.19-27.939,23.438-38.805c0.679-0.656,1.698-1.141,1.866-2.828
		c0.009-0.094,0.027-0.177,0.031-0.279c-0.084,0.051-0.154,0.107-0.236,0.159c-2.465,1.538-4.298,3.283-6.076,5.026
		c-1.859,1.82-3.54,3.821-5.3,5.744c-0.938,1.31-1.878,2.618-2.814,3.929c-2.524,3.535-2.508,3.502-6.589,1.584
		c-9.855-4.63-19.107-10.251-27.794-16.811c-12.559-8.084-23.864-17.747-34.918-27.726c-1.598-1.441-3.191-2.891-4.731-4.395
		c-4.596-4.487-9.87-8.442-11.949-14.934c-0.016-0.05-0.04-0.093-0.055-0.143c-1.318-4.348-2.658-8.69-3.948-13.047
		c-1.971-6.649-3.171-13.482-4.153-20.312c-1.243-8.642-1.297-17.397-1.008-26.126c0.064-1.917-0.156-3.792,0.269-5.795
		c0.598-2.816,1.509-2.591,3.519-1.535c21.31,11.189,41.456,24.162,60.287,39.16c21.734,17.313,41.585,36.566,59.447,57.858
		c0.116,0.139,0.233,0.276,0.347,0.415c2.859,3.48,2.856,3.476-0.464,6.226c-0.244,0.202-0.367,0.55-0.547,0.829
		c0.986,0.786,1.628,0.045,2.271-0.321c17.182-9.771,35.862-15.034,55.201-18.253c10.205-1.699,20.514-2.811,30.844-2.954
		c28.554-0.395,56.467,3.286,83.092,14.268c3.492,1.44,6.855,3.163,10.018,5.241c0.849,0.558,2.378,1.061,0.739,2.477
		c-0.356,0.307-0.308,0.833,0.103,1.185c0.416,0.352,0.852,0.211,1.233-0.057c0.735-0.519,1.446-1.067,2.162-1.611
		c36.419-27.733,76.954-47.078,120.996-59.206c11.008-3.03,22.3-4.76,33.528-6.76c2.234-0.398,3.184,0.112,3.051,2.709
		c-0.484,9.665-3.246,18.741-6.837,27.601c-2.073,5.112-4.038,10.335-6.763,15.102c-4.201,7.352-7.576,15.2-12.775,21.97
		c-2.532,4.318-6.747,6.372-11.017,8.518c-14.529,7.309-29.779,12.687-45.335,17.278c-0.422,0.124-0.886,0.1-1.332,0.146
		c-10.06,3.313-20.349,5.764-30.675,8.042c-6.478,1.428-13.017,2.577-19.527,3.852c-0.179,1.378,0.983,0.851,1.586,1.116
		c3.287-0.425,6.591-0.746,9.851-1.325c1.235-0.22,1.807,0.14,2.371,1.088c3.721,6.244,7.075,12.661,9.314,19.61
		c4.33,10.642,6.561,21.788,8.154,33.115c3.462,24.648,5.574,49.454,8.753,74.131c2.617,20.311,6.649,40.399,10.427,60.522
		c1.178,6.265,2.22,12.557,3.54,18.792c0.443,2.084-0.317,2.514-2.087,2.929c-8.485,1.993-16.896,4.249-24.614,8.48
		c-1.416,0.776-2.812,1.616-4.114,2.562c-3.71,2.697-3.834,5.73-0.211,8.503c6.602,5.053,14.233,7.989,22.174,10.078
		c4.594,1.207,9.304,1.974,13.983,2.846c1.731,0.321,2.663,0.923,3.173,2.888c5.167,19.996,9.635,40.152,14.196,60.289
		c0.436,1.919-0.135,2.615-1.892,3.292c-9.21,3.558-18.556,6.804-27.188,11.71c-6.715,3.818-6.717,5.914-0.377,10.342
		c9.401,6.568,20.09,9.433,31.173,11.114c2.438,0.37,2.741,1.29,2.755,3.423C471.13,534.767,464.709,552.198,455.196,568.718z
		 M711.961,250.018c-19.164,7.199-38.34,14.361-57.796,20.742c-27.553,9.037-55.211,17.728-83.141,25.543
		c-3.891,1.089-3.939,1.205-2.759,4.972c6.529,20.814,13.012,41.643,19.656,62.42c0.753,2.355,0.177,2.993-1.963,3.719
		c-15.725,5.344-31.393,10.852-47.112,16.219c-2.247,0.767-2.95,1.731-2.206,4.139c1.676,5.395,3.058,10.882,4.557,16.332
		c3.141,10.826,6.26,21.66,9.447,32.475c0.39,1.318-0.443,1.577-1.249,1.931c-11.997,5.271-24.001,10.53-36.005,15.792
		c-1.724,0.755-3.448,1.52-5.184,2.259c-3.085,1.311-3.333,1.763-2.034,4.83c3.815,9.011,7.67,18.003,11.54,26.988
		c1.536,3.563,1.566,3.522-1.97,4.748c-13.478,4.665-26.963,9.316-40.411,14.068c-2.172,0.767-2.801,0.372-2.785-1.951
		c0.021-2.86-0.071-5.783-0.654-8.565c-0.445-2.112,0.328-2.842,1.974-3.666c7.39-3.696,14.688-7.585,22.107-11.217
		c2.365-1.155,2.58-2.266,1.442-4.538c-5.257-10.524-10.326-21.143-15.514-31.704c-0.702-1.43-0.927-2.312,0.877-3.134
		c7.268-3.312,14.47-6.772,21.694-10.179c3.063-1.458,6.086-3.01,9.206-4.337c2.05-0.875,2.385-2.036,1.492-3.976
		c-1.118-2.422-2.048-4.936-3.056-7.408c0.001,0,0.001-0.001,0.002-0.002c-6.138-15.146-12.238-30.307-18.452-45.421
		c-0.799-1.947-0.514-2.693,1.483-3.457c15.932-6.102,31.887-12.142,48.06-17.58c4.148-1.396,4.192-1.559,1.66-5.257
		c-23.824-34.788-47.631-69.587-71.52-104.33c-1.414-2.058-1.506-2.997,0.751-4.509c57.131-38.305,115.232-75.037,175.296-108.602
		c5.496-3.071,5.537-2.973,8.393,2.522c17.151,33.004,34.224,66.046,48.774,100.312c2.493,5.867,4.982,11.733,6.864,17.834
		C714.48,249.812,712.753,249.721,711.961,250.018z M262,292.109c0.346,0.483-0.006,0.961-0.419,1.389
		c-2.172,2.246-11.444,6.521-14.274,6.544c-2.974,0.012-5.586-1.193-8.149-2.505c-4.631-2.37-9.263-4.746-13.842-7.217
		c-1.498-0.808-2.788-0.82-4.303-0.075c-4.345,2.14-8.765,4.105-13.285,5.87c-3.871,1.511-7.162,0.98-10.185-1.789
		c-1.257-1.153-2.602-2.208-3.84-3.378c-0.536-0.505-1.521-1.107-0.738-1.977c0.821-0.913,1.404,0.1,1.979,0.575
		c1.729,1.428,3.418,2.905,5.166,4.308c1.676,1.343,3.509,1.492,5.576,0.855c4.998-1.544,9.687-3.795,14.339-6.116
		c2.207-1.102,4.091-1.151,6.299,0.087c4.613,2.59,9.4,4.872,14.055,7.39c4.442,2.403,8.783,2.838,13.214-0.013
		c2.185-1.406,4.481-2.641,6.729-3.953C260.888,291.776,261.539,291.46,262,292.109z M216.876,263.607
		c-0.202-1.428,0.908-1.906,1.987-1.973c2.055-0.126,4.122-0.037,6.184-0.037c0,0.028,0,0.054,0,0.08
		c1.972,0,3.95-0.094,5.914,0.029c1.684,0.107,2.041,1.079,0.915,2.312c-2.031,2.225-4.563,3.782-7.377,4.775
		C222.927,269.347,217.116,265.308,216.876,263.607z"/>
	<g>
		<g>
			<path fill="#FCD638" d="M597.294,257.898c6.242-0.966,12.612-1.789,18.772-2.585c3.386-0.438,6.775-0.876,10.158-1.338
				c11.586-1.585,23.097-2.547,32.828-3.279c5.388-0.405,10.868-0.746,16.168-1.074c3.182-0.199,6.366-0.396,9.548-0.608
				c5.241-0.351,10.553-0.342,15.684-0.329c3.336,0.006,6.795,0.014,10.193-0.08l0.321-0.006c0.939-0.013,1.483-0.049,1.827-0.623
				c-1.878-6.031-4.366-11.885-6.775-17.549c-14.977-35.273-32.922-69.805-48.753-100.271c-1.325-2.548-2.048-3.939-2.87-4.185
				c-0.103-0.031-0.216-0.047-0.337-0.047c-0.84,0-2.16,0.714-4.378,1.952c-53.804,30.067-111.132,65.582-175.255,108.577
				c-0.941,0.63-1.4,1.115-1.488,1.569c-0.087,0.461,0.163,1.056,0.893,2.119c19.637,28.561,39.548,57.639,58.804,85.76
				l12.716,18.571c1.403,2.047,2.062,3.073,1.742,4.025c-0.315,0.944-1.423,1.354-3.698,2.121
				c-16.313,5.484-32.677,11.687-48.037,17.571c-0.865,0.331-1.313,0.627-1.458,0.957c-0.142,0.331-0.048,0.863,0.308,1.729
				c4.633,11.27,9.279,22.753,13.772,33.857l4.359,10.771c0.404-0.556,0.494-1.258,0.592-2.041c0.053-0.404,0.106-0.808,0.197-1.196
				c0.17-0.716,0.416-1.414,0.654-2.087c0.106-0.298,0.211-0.597,0.31-0.895l0.106-1.864c-0.514-3.65-1.671-7.337-2.789-10.904
				c-0.56-1.786-1.139-3.632-1.632-5.473c-1.586-5.923-3.416-11.894-5.184-17.668l-0.188-0.611
				c-0.209-0.686-0.402-1.469-0.002-2.071c0.383-0.579,1.127-0.723,1.736-0.787c1.848-0.193,3.694-0.429,5.539-0.666
				c2.188-0.28,4.451-0.569,6.69-0.781c15.057-1.421,26.538-3.168,37.229-5.661c2.53-0.59,5.087-1.187,7.633-1.623
				c0.764-0.133,1.212-0.308,1.327-0.521c0.124-0.227,0.023-0.73-0.305-1.497c-2.514-5.902-4.986-11.94-7.376-17.779
				c-1.272-3.106-2.544-6.212-3.829-9.312l-1.901-4.596c-7.098-17.143-14.438-34.87-21.738-52.27
				c-0.432-1.031-0.507-1.714-0.246-2.284c0.298-0.659,0.973-0.994,1.963-1.321c9.135-3.023,18.666-5.011,27.886-6.933l4.481-0.939
				c10.519-2.225,21.309-3.892,31.745-5.505L597.294,257.898z"/>
			<path fill="#FCD638" d="M369.023,646.799c8.157-3.434,15.103-9.031,21.823-14.444l0.728-0.583
				c-0.565-2.523-2.388-4.089-4.314-5.744c-0.464-0.397-0.927-0.797-1.373-1.208c-4.745-4.392-10.578-6.256-18.375-5.826
				c-0.264,0.014-0.535,0.039-0.803,0.062c-1.221,0.115-2.599,0.239-3.882-0.523c-0.808-0.131-1.214-0.135-1.618,0.505
				c-4.719,7.433-7.648,15.941-8.955,26.008c-0.078,0.592,0.037,0.737,0.06,0.76c0.063,0.06,0.302,0.108,0.742,0.034
				c1.687-0.278,2.612-0.746,2.988-2.537c1.183-5.631,3.615-11.127,7.882-17.815c0.073-0.112,0.145-0.243,0.218-0.381
				c0.292-0.537,0.657-1.208,1.332-1.38c0.103-0.025,0.207-0.039,0.312-0.039c0.282,0,0.574,0.096,0.865,0.285
				c0.388,0.253,0.62,0.567,0.689,0.937c0.117,0.634-0.289,1.194-0.615,1.641c-0.119,0.165-0.239,0.321-0.312,0.473
				c-0.567,1.146-1.217,2.264-1.846,3.345l-0.264,0.457c-2.916,5.039-4.921,10.468-5.96,16.136
				c-0.028,0.147-0.069,0.305-0.114,0.468c-0.218,0.81-0.182,0.921,0.346,1.072c1.368,0.39,3.565-0.732,4.123-2.11
				c2.362-5.81,5.891-11.432,10.781-17.192l0.149-0.191c0.31-0.404,0.95-1.244,2.101-0.629l0.243,0.131l0.055,0.273
				c0.236,1.175-0.425,1.919-0.955,2.518c-0.138,0.154-0.275,0.305-0.39,0.464c-3.189,4.403-5.748,8.574-7.828,12.755
				c-0.133,0.271-0.303,0.558-0.478,0.854c-0.657,1.113-1.051,1.883-0.558,2.392c0.42,0.436,1.166,0.089,2.252-0.491
				C368.401,647.099,368.724,646.925,369.023,646.799z"/>
			<path fill="#FCD638" d="M442.487,585.534l1.067-0.551c4.458-5.184,7.943-11.022,11.132-16.559
				c10.845-18.831,15.843-35.689,15.728-53.049c-0.014-2-0.236-2.541-2.254-2.847c-9.141-1.387-20.973-3.912-31.423-11.212
				c-3.042-2.126-5.048-3.949-4.956-5.944c0.08-1.703,1.637-3.264,5.379-5.393c7.305-4.151,15.225-7.16,22.886-10.071
				c1.46-0.556,2.922-1.111,4.382-1.676c1.605-0.62,1.878-1.084,1.529-2.612l-1.607-7.114c-3.946-17.466-8.028-35.526-12.585-53.159
				c-0.455-1.756-1.205-2.176-2.711-2.456l-2.727-0.5c-3.724-0.677-7.573-1.377-11.297-2.355
				c-9.44-2.484-16.552-5.719-22.383-10.181c-1.928-1.476-2.895-3.056-2.874-4.697c0.021-1.671,1.063-3.267,3.097-4.747
				c1.182-0.859,2.548-1.71,4.178-2.603c8.014-4.392,16.983-6.708,24.761-8.535c1.664-0.39,1.99-0.627,1.648-2.236
				c-0.891-4.201-1.667-8.494-2.415-12.645c-0.372-2.055-0.744-4.109-1.129-6.162c-0.569-3.037-1.146-6.077-1.722-9.114
				c-3.189-16.803-6.485-34.18-8.71-51.442c-1.405-10.905-2.622-22.014-3.797-32.759c-1.488-13.576-3.023-27.612-4.956-41.365
				c-1.288-9.167-3.359-21.128-7.961-32.594c-3.848,0.085-7.328-1.398-10.565-4.541c-4.256-4.13-8.531-8.795-11.012-14.932
				c-0.071-0.006-0.152-0.009-0.22-0.013c-0.383-0.016-0.907-0.038-1.253-0.451c-0.248-0.293-0.333-0.694-0.264-1.23
				c0.592-1.542,0.308-2.949,0.007-4.438c-0.115-0.568-0.23-1.134-0.296-1.698c-0.218-1.778-0.214-2.887,0.436-3.651
				c0.654-0.77,1.791-0.962,3.535-1.033c4.341-0.174,8.747,0.047,12.996,0.264c3.147,0.162,6.4,0.328,9.603,0.328
				c0.087,0,0.174,0,0.259,0c6.449-0.02,13.441-0.682,22.006-2.082c0.753-0.124,1.49-0.071,2.218-0.096
				c0.112-0.013,0.269-0.021,0.422-0.029c0.28-0.015,0.544-0.029,0.764-0.093c18.106-5.344,32.479-10.823,45.236-17.239l0.264-0.133
				c4.174-2.097,8.118-4.078,10.51-8.158c3.586-4.675,6.331-9.901,8.985-14.956c1.214-2.311,2.47-4.702,3.788-7.008
				c2.326-4.069,4.125-8.556,5.868-12.894l0.861-2.137c4.277-10.557,6.373-19.011,6.793-27.41c0.053-1.028-0.08-1.692-0.395-1.97
				c-0.308-0.272-0.932-0.318-1.965-0.131c-1.942,0.346-3.884,0.684-5.829,1.022c-9.13,1.587-18.57,3.228-27.647,5.728
				c-44.881,12.359-85.521,32.245-120.797,59.106l-0.312,0.239c-0.618,0.469-1.235,0.939-1.866,1.385
				c-0.948,0.66-1.628,0.301-1.954,0.024c-0.347-0.297-0.546-0.704-0.549-1.116c0-0.372,0.156-0.714,0.443-0.961
				c0.535-0.464,0.523-0.669,0.521-0.677c-0.014-0.164-0.517-0.457-0.785-0.613c-0.145-0.085-0.287-0.168-0.415-0.251
				c-2.979-1.957-6.315-3.703-9.919-5.189c-24.261-10.006-51.372-14.644-82.86-14.223c-9.581,0.132-19.642,1.095-30.755,2.945
				c-22.214,3.697-39.694,9.475-55.007,18.184c-0.101,0.057-0.201,0.126-0.304,0.195c-0.552,0.371-1.476,0.992-2.623,0.075
				l-0.414-0.331l0.286-0.447c0.049-0.076,0.092-0.157,0.137-0.24c0.129-0.24,0.274-0.513,0.53-0.724
				c2.868-2.376,2.868-2.376,0.385-5.398l-0.344-0.412c-17.598-20.978-37.57-40.417-59.362-57.775
				c-18.32-14.59-38.572-27.746-60.194-39.099c-0.737-0.387-1.558-0.784-1.901-0.621c-0.201,0.094-0.498,0.475-0.77,1.757
				c-0.281,1.327-0.266,2.583-0.25,3.914c0.007,0.592,0.014,1.183-0.006,1.779c-0.239,7.211-0.341,16.685,1.002,26.023
				c0.868,6.033,2.037,13.155,4.135,20.228c0.888,3,1.801,5.993,2.712,8.985l1.235,4.059c1.723,5.349,5.451,8.825,9.399,12.503
				c0.825,0.769,1.649,1.538,2.454,2.323c1.566,1.528,3.188,3.002,4.714,4.379c10.506,9.485,22,19.401,34.843,27.668
				c1.263,0.512,2.612,1.087,3.962,1.663c2.944,1.256,5.988,2.555,9.038,3.654c8.592,3.1,15.915,5.288,23.636,5.869
				c0.469-0.515,0.933-1.035,1.397-1.555c1.193-1.337,2.427-2.722,3.734-4.001c1.848-1.812,3.712-3.567,6.175-5.104l1.171-0.722
				l-0.036,1.081c-0.003,0.086-0.013,0.162-0.024,0.238c-0.17,1.682-1.033,2.404-1.662,2.932c-0.137,0.114-0.27,0.224-0.39,0.341
				c-10.996,10.623-18.829,23.594-23.283,38.55c-2.732,9.176-4.68,19.479-6.131,32.424c-0.364,3.245-0.62,6.57-0.867,9.785
				c-0.779,10.121-1.584,20.585-5.867,30.339c-0.303,0.686-0.239,0.806,0.193,1.055c4.514,2.611,6.573,7.096,8.124,11.554
				c3.361,9.66,4.161,19.508,2.377,29.267c-1.071,5.852-2.179,11.903-7.308,16.222c-0.232,0.195-0.365,0.374-0.375,0.506
				c-0.015,0.195,0.242,0.488,0.469,0.745c0.125,0.142,0.247,0.282,0.347,0.42c9.595,13.216,19.597,24.426,30.576,34.268
				c7.68,6.887,15.79,13.124,24.115,19.438c0.088,0.067,0.196,0.133,0.309,0.202c0.424,0.264,0.953,0.59,1.084,1.171
				c0.075,0.324,0.006,0.654-0.203,0.983c-0.225,0.354-0.511,0.562-0.846,0.624c-0.552,0.094-1.019-0.246-1.389-0.526
				c-0.121-0.092-0.236-0.181-0.349-0.241c-0.426-0.22-0.805-0.5-1.172-0.769c-0.15-0.11-0.3-0.22-0.452-0.326
				c-8.892-6.15-17.043-12.966-23.151-18.216c-1.744-1.499-2.797-2.433-3.422-2.316c-0.627,0.083-1.438,1.235-2.71,3.108
				c-17.643,25.976-23.921,54.853-18.658,85.829c3.426,20.17,13.424,38.946,30.562,57.399c1.459,1.57,2.862,3.393,3.245,6.09
				c0.094,0.666,0.292,2.055,0.523,2.215c0.267,0.108,1.415-0.652,1.907-0.96c2.187-1.364,5.064-2.562,7.952,0.335
				c0.259,0.259,0.65,0.542,0.941,0.535c0.411-0.039,0.83-0.647,1.201-1.182l0.1-0.145c0.965-1.393,1.913-2.128,2.982-2.312
				c1.072-0.184,2.211,0.191,3.576,1.175c0.784,0.569,1.983,1.437,2.343,1.313c0.351-0.108,0.808-1.329,1.25-2.514l0.054-0.142
				c0.498-1.348,1.125-3.03,3.655-2.298c0.527,0.152,1.092,0.374,1.664,0.601c1.407,0.558,2.859,1.136,3.639,0.51
				c0.904-0.732,0.95-2.447,0.994-4.105c0.015-0.558,0.03-1.107,0.076-1.618c0.161-1.804,0.735-3.889,3.763-3.972
				c1.163-0.032,2.54-0.145,2.876-0.746c0.236-0.425,0.032-1.219-0.591-2.3c-0.376-0.654-0.284-1.495-0.201-2.236
				c0.018-0.17,0.037-0.337,0.048-0.496c0.15-2.022,0.316-4.045,0.48-6.068c0.277-3.386,0.562-6.885,0.768-10.328
				c0.877-14.667,0.551-26.52-1.026-37.303c-2.117-14.502-7.627-27.495-12.739-38.292c-0.081-0.174-0.195-0.344-0.308-0.517
				c-0.413-0.634-0.979-1.504-0.364-2.626l0.2-0.365l0.411,0.067c0.078,0.014,0.15,0.018,0.216,0.025
				c0.211,0.016,0.475,0.037,0.693,0.236c0.357,0.335,0.613,0.647,0.791,0.962c8.048,14.265,12.988,29.123,14.683,44.16
				c1.856,16.476,0.807,32.897-0.313,45.363c-0.055,0.615-0.138,1.235-0.22,1.855c-0.263,1.97-0.511,3.832,0.073,5.668
				c0.729,2.293,1.077,3.386,0.583,4.215s-1.618,1.045-3.859,1.469c-0.087,0.018-0.162,0.041-0.238,0.067
				c-0.193,0.057-0.438,0.112-0.702,0.119c-1.391-0.117-1.913,0.457-2.006,1.974c-0.085,1.357-0.335,2.704-0.579,4.011
				c-0.101,0.544-0.203,1.09-0.293,1.637c-0.168,1.022-0.569,1.747-1.194,2.163c-0.612,0.411-1.411,0.496-2.378,0.262
				c-0.355-0.085-0.712-0.163-1.07-0.241c-0.433-0.094-0.867-0.188-1.298-0.296c-3.204-0.799-3.199-0.794-4.301,2.213
				c-0.471,1.286-1.094,2.05-1.904,2.337c-0.791,0.273-1.716,0.092-2.824-0.569c-0.155-0.094-0.313-0.181-0.473-0.269
				c-0.411-0.227-0.837-0.461-1.212-0.787c-0.832-0.728-1.561-1.054-2.144-0.964c-0.579,0.087-1.151,0.585-1.705,1.483
				c-0.784,1.274-1.701,1.986-2.725,2.119c-0.983,0.126-2-0.296-3.01-1.263c-1.576-1.504-3.037-1.589-4.736-0.271
				c-0.393,0.303-0.83,0.503-1.252,0.696c-0.243,0.11-0.487,0.22-0.715,0.354c-1.556,0.904-2.577,0.728-3.165,0.42
				c-0.548-0.287-1.226-0.964-1.349-2.553c-0.309-4.04-2.817-6.648-5.472-9.41l-0.345-0.36c-0.657-0.684-0.876-0.732-0.914-0.735
				c-0.038,0.03-0.2,0.214-0.533,1.035c-2.997,7.42-6.395,15.831-10.762,23.59c-3.672,6.52-5.993,12.066-7.305,17.454
				c-2.56,10.517-1.98,20.682,1.724,30.214c5.491,5.381,11.128,8.953,17.23,10.918c12.513,4.031,25.112,3.62,38.519-1.256
				c2.996-1.088,5.985-2.365,8.875-3.6c4.982-2.128,10.133-4.33,15.541-5.673c5.886-1.465,11.853-2.192,18.073-2.192
				c2.422,0,4.883,0.11,7.394,0.331c14.829,1.295,28.783,6.341,42.28,11.221c1.527,0.551,3.054,1.104,4.582,1.651
				c18.862,6.747,35.916,12.624,53.605,16.201c7.14,1.444,14.537,2.231,21.989,2.342c8.12,0.122,17.569,0.232,26.956-0.011
				c15.434-0.397,28.469-3.517,39.851-9.536C441.05,586.273,441.768,585.903,442.487,585.534z M182.5,248.598
				c-3.629,3.844-8.55,5.947-13.76,5.947c-0.75,0-1.506-0.044-2.265-0.131c-5.996-0.698-11.164-4.079-14.176-9.278
				c-5.799-10.01-3.713-25.938,4.464-34.085c4.928-4.91,11.115-6.747,18.39-5.472c6.384,1.121,9.311,6.172,11.334,10.964
				c1.569,3.72,2.291,7.943,2.207,12.912C188.494,235.758,187.835,242.947,182.5,248.598z M361.364,268.592
				c17.41,0,31.655,13.982,31.763,31.182c0.053,8.328-3.214,16.205-9.197,22.182c-5.996,5.991-13.923,9.281-22.346,9.281
				c-0.078,0-0.156-0.001-0.234-0.001c-8.939-0.064-17.168-3.565-23.17-9.861c-5.647-5.922-8.582-13.524-8.264-21.405
				c-0.013-8.396,3.238-16.29,9.154-22.202c5.915-5.911,13.822-9.17,22.267-9.177C361.344,268.592,361.355,268.592,361.364,268.592z
				 M315.025,209.057c8.162-3.454,17.645-2.307,25.363,3.068c7.992,5.566,12.501,14.565,12.062,24.074
				c-0.098,6.364-2.027,14.935-10.667,19.522c-4.72,2.508-9.663,3.766-14.464,3.766c-4.369,0-8.62-1.041-12.485-3.129
				c-7.852-4.244-13.046-12.29-13.893-21.524C299.799,222.352,304.669,213.439,315.025,209.057z M216.711,261.957
				c0.553-0.678,1.455-0.87,2.115-0.91h0.001c1.474-0.091,2.967-0.07,4.412-0.053c0.603,0.007,1.205,0.015,1.807,0.015h0.588v0.078
				c0.398-0.003,0.797-0.009,1.195-0.015c1.365-0.016,2.775-0.039,4.168,0.047c1.336,0.085,1.833,0.639,2.016,1.09
				c0.183,0.453,0.21,1.204-0.704,2.204c-2.006,2.199-4.57,3.859-7.616,4.933c-0.162,0.057-0.342,0.083-0.536,0.083
				c-1,0-2.363-0.686-3.411-1.323c-1.447-0.879-4.242-2.935-4.451-4.417C216.197,262.998,216.337,262.415,216.711,261.957z
				 M207.943,296.662c-4.112,1.604-7.642,0.984-10.795-1.903c-0.567-0.521-1.152-1.02-1.738-1.521
				c-0.714-0.609-1.427-1.22-2.109-1.864l-0.226-0.201c-0.42-0.364-0.942-0.816-0.985-1.483c-0.024-0.388,0.124-0.762,0.44-1.112
				c0.327-0.365,0.688-0.554,1.07-0.564c0.639-0.001,1.063,0.432,1.422,0.793c0.101,0.102,0.2,0.203,0.298,0.285
				c0.691,0.572,1.376,1.15,2.062,1.729c1.026,0.868,2.051,1.734,3.098,2.575c1.419,1.138,3.019,1.374,5.036,0.752
				c4.999-1.544,9.781-3.851,14.249-6.08c2.444-1.22,4.555-1.185,6.849,0.1c2.604,1.462,5.312,2.85,7.932,4.193
				c2.047,1.049,4.094,2.099,6.117,3.193c4.681,2.533,8.693,2.538,12.616,0.009c1.524-0.98,3.121-1.889,4.666-2.769
				c0.696-0.397,1.392-0.793,2.085-1.197c0.451-0.266,1.646-0.96,2.451,0.171c0.676,0.946-0.191,1.843-0.475,2.138
				c-2.285,2.363-11.758,6.699-14.691,6.723c-0.015,0-0.029,0-0.044,0c-3.1,0-5.838-1.268-8.377-2.569
				c-4.959-2.538-9.424-4.834-13.853-7.223c-1.321-0.714-2.412-0.73-3.765-0.065C216.822,292.964,212.337,294.946,207.943,296.662z
				 M273.257,380.311c-6.288,9.653-14.019,16.375-23.635,20.549c-1.165,0.505-2.32,0.705-3.433,0.705
				c-2.087,0-4.032-0.702-5.639-1.414c-10.467-4.651-18.867-12.328-25.68-23.466l-0.781-1.276l1.441,0.402
				c9.174,2.571,18.53,2.798,26.455,2.702c1.679-0.023,3.359-0.039,5.039-0.053c5.397-0.051,10.977-0.103,16.446-0.397
				c0.97-0.051,1.94-0.122,2.91-0.193c1.68-0.124,3.418-0.25,5.143-0.273c0.807,0,1.732,0.064,2.113,0.753
				C274.048,379.094,273.454,380.01,273.257,380.311z M404.686,459.641c-5.349,5.882-12.068,9.708-18.492,13.127
				c-0.918,0.489-1.82,1.017-2.72,1.547c-2.599,1.527-5.285,3.104-8.427,3.698c-10.955,9.814-19.876,16.582-28.908,21.931
				c-0.767,0.455-1.528,0.93-2.289,1.405c-2.058,1.286-4.185,2.615-6.46,3.54c-8.09,3.294-14.065,7.286-18.802,12.564
				c-1.226,1.364-2.161,1.972-3.059,1.972c-0.095,0-0.189-0.007-0.284-0.021c-0.985-0.138-1.785-0.985-2.674-2.828
				c-0.616-1.279-1.168-1.933-1.791-2.124c-0.612-0.184-1.435,0.037-2.592,0.709c-1.499,0.875-2.472,1.384-3.341,1.129
				c-0.902-0.264-1.396-1.23-2.293-2.98l-0.38-0.721c-1.582-3.09-1.581-3.092-4.777-2.091c-1.077,0.335-2.443,0.64-3.465-0.032
				c-0.721-0.471-1.141-1.336-1.282-2.64c-0.153-1.423-0.525-2.307-1.135-2.709c-0.566-0.372-1.447-0.376-2.619-0.014
				c-1.144,0.363-2.058,0.278-2.715-0.243c-0.702-0.556-1.01-1.531-0.915-2.902c0.017-0.241,0.003-0.489-0.008-0.737
				c-0.018-0.388-0.037-0.79,0.032-1.203c0.153-0.907,0.083-1.527-0.214-1.892c-0.321-0.399-1.016-0.618-2.122-0.666
				c-1.838-0.083-3.149-0.321-3.574-1.224c-0.413-0.875,0.164-1.938,1.158-3.264c3.105-4.137,3.295-8.767,3.497-13.668
				c0.026-0.643,0.053-1.286,0.086-1.926c1.354-26.1,9.606-50.438,24.527-72.344c6.995-10.271,16.103-19.509,27.843-28.237
				l0.157-0.126c0.375-0.303,1.001-0.808,2.052-0.386l0.36,0.149l0.003,0.39c0.009,1.256-0.905,1.873-1.573,2.323
				c-0.174,0.117-0.346,0.232-0.495,0.356c-12.71,10.549-21.708,20.399-28.316,30.999c-12.272,19.683-19.059,39.13-20.748,59.447
				c-0.093,1.113-0.226,2.225-0.359,3.333c-0.185,1.538-0.375,3.129-0.448,4.69c-0.031,0.691-0.052,1.387-0.072,2.082
				c-0.142,4.8-0.289,9.754-4.058,14.318c1.936-0.073,3.378,0.425,4.304,1.361c1.454,1.478,1.364,3.854,1.121,5.758
				c-0.052,0.413,0.024,0.517,0.024,0.519c0.104,0.103,0.794,0.021,1.022-0.007c4.373-0.539,4.704-0.315,5.823,4.017
				c0.18,0.707,0.329,1.288,0.606,1.444c0.212,0.117,0.652,0.087,1.26-0.101c4.838-1.483,5.328-1.26,7.506,3.437
				c0.475,1.031,0.886,1.556,1.331,1.708c0.44,0.152,1.069-0.005,1.986-0.484c0.419-0.218,0.787-0.418,1.115-0.595
				c2.868-1.554,3.235-1.435,4.884,1.568l0.537,0.971c0.367,0.654,1.051,1.871,1.336,1.901c0.254,0.041,1.273-1.093,1.593-1.462
				c4.884-5.65,11.395-8.825,17.138-11.625c12.692-6.187,24.629-14.495,35.48-24.69c1.66-3.416,3.735-6.635,5.742-9.747
				c0.808-1.251,1.614-2.502,2.397-3.77c3.545-5.725,7.105-11.947,11.21-19.571c2.477-4.61,4.908-9.247,7.337-13.884
				c1.111-2.119,2.222-4.238,3.338-6.354l0.154-0.305c0.386-0.771,0.914-1.827,2.149-1.83c0.002,0,0.005,0,0.007,0
				c1.396,0,1.935,1.185,2.33,2.048l0.135,0.292c1.534,3.216,2.124,6.694,2.691,10.06c0.099,0.583,0.197,1.166,0.301,1.747
				c0.562,3.18,0.556,6.407,0.549,9.532c-0.002,1.414-0.005,2.828,0.044,4.242C408.555,453.817,407.361,456.707,404.686,459.641z"/>
			<polygon fill="#FCD638" points="67.306,92.965 67.306,92.965 67.306,92.965 			"/>
			<path fill="#FCD638" d="M163.163,637.341c0.153-0.085,0.301-0.163,0.441-0.232c8.611-4.148,16.659-8.946,23.926-14.265
				c0.235-3.685-0.577-7.443-2.619-12.137c-2.836-6.522-7.852-9.904-14.91-10.051c-8.129,6.887-16.343,22.337-16.6,30.351
				c2.393-6.097,5.517-12.16,10.995-16.722l0.713-0.592l0.233,0.898c0.364,1.405-0.39,2.234-0.941,2.84
				c-0.148,0.163-0.296,0.326-0.422,0.498c-3.004,4.146-6.662,9.77-8.292,16.529l-0.077,0.303c-0.14,0.546-0.313,1.224-0.116,1.529
				c0.091,0.14,0.295,0.239,0.605,0.292c1.739,0.289,2.528-0.032,2.858-1.15c1.621-5.5,5.241-9.543,9.455-13.882
				c0.076-0.078,0.152-0.165,0.23-0.255c0.519-0.59,1.38-1.568,3.037-0.916h0.062l0.755,0.498l-0.507,0.507
				c-0.405,0.489-0.834,0.992-1.255,1.485c-0.892,1.047-1.732,2.034-2.524,3.065c-0.404,0.526-0.817,1.047-1.232,1.566
				c-2.065,2.599-4.015,5.05-4.882,8.221c-0.054,0.195-0.126,0.399-0.2,0.608c-0.272,0.767-0.348,1.12-0.112,1.336
				C162.035,637.889,162.412,637.747,163.163,637.341z"/>
		</g>
		<g>
			<path fill="#C27033" d="M550.081,436.746c-2.424-8.225-4.809-16.46-7.195-24.695l-1.398-4.828
				c-0.112,1.203-0.227,2.406-0.333,3.609l-0.023,0.305c-0.057,0.799-0.145,2.006-1.208,2.335c-1.286,0.399-1.752-0.787-1.965-1.364
				c-0.062-0.165-0.119-0.328-0.193-0.459c-1.054-1.885-2.08-3.786-3.18-5.82l-0.613-1.132c-0.292,1.579-0.411,3.106-0.526,4.596
				c-0.094,1.205-0.181,2.346-0.356,3.505l-0.028,0.207c-0.062,0.487-0.174,1.389-1.136,1.575c-0.799,0.154-1.203-0.478-1.453-0.854
				l-0.115-0.17c-1.04-1.442-2.087-2.874-3.196-4.394l-0.691-0.946c-0.37,1.306-0.539,2.576-0.707,3.813
				c-0.08,0.599-0.161,1.191-0.262,1.781l-0.051,0.358c-0.103,0.758-0.241,1.795-1.315,2.144c-0.964,0.301-1.568-0.434-1.924-0.879
				c-0.108-0.135-0.214-0.269-0.328-0.374c-0.978-0.888-1.885-1.866-2.762-2.81c-1.194-1.286-2.952-3.15-4.357-4.238l-0.064,0.95
				c-0.129,0.452-0.236,0.76-0.344,1.065c-0.239,0.673-0.464,1.311-0.62,1.965c-0.083,0.349-0.129,0.712-0.174,1.074
				c-0.133,1.047-0.053,1.984-1.042,2.861c0.241,0.597,0.78,1.976,1.018,2.576c0.68,1.715,1.382,3.485,2.16,5.177
				c0.546,1.185,0.659,2.103,0.358,2.888c-0.303,0.781-0.985,1.377-2.153,1.873c-2.19,0.932-4.373,1.995-6.485,3.023
				c-0.898,0.438-1.795,0.875-2.697,1.304l-5.698,2.695c-5.232,2.482-10.645,5.046-16.005,7.488
				c-0.579,0.264-0.921,0.533-1.017,0.797c-0.117,0.328,0.076,0.833,0.425,1.543c2.006,4.086,3.997,8.182,5.987,12.28
				c3.099,6.377,6.304,12.973,9.525,19.421c0.705,1.407,0.886,2.367,0.601,3.207c-0.278,0.822-0.989,1.476-2.312,2.121
				c-4.231,2.071-8.496,4.265-12.622,6.384c-3.154,1.623-6.309,3.244-9.479,4.83c-1.561,0.781-2.02,1.327-1.664,3.019
				c0.622,2.966,0.686,6.058,0.668,8.691c-0.009,1.168,0.165,1.538,0.315,1.644c0.142,0.101,0.558,0.149,1.687-0.25
				c11.777-4.162,23.776-8.315,35.383-12.33l5.03-1.74c1.419-0.491,2.388-0.826,2.534-1.159c0.149-0.34-0.273-1.32-0.859-2.677
				c-3.923-9.109-7.78-18.104-11.595-27.114c-1.405-3.32-1.054-4.155,2.346-5.601c1.329-0.565,2.652-1.146,3.974-1.726l6.127-2.686
				c10.363-4.543,20.725-9.084,31.081-13.634l0.156-0.069C550.109,437.561,550.29,437.453,550.081,436.746z"/>
			<path fill="#C27033" d="M438.456,498.764c7.617,5.335,16.674,8.607,29.362,10.606c1.155,0.179,2.245,0.354,2.436,0.216
				c0.112-0.133,0.09-0.927,0.069-1.628c-0.645-10.17-1.648-18.565-3.157-26.398c-0.135-0.696-0.294-0.829-0.34-0.854
				c-0.021-0.011-0.06-0.025-0.129-0.025c-0.122,0-0.337,0.039-0.714,0.191c-2.208,0.891-4.431,1.747-6.653,2.606
				c-6.94,2.674-14.114,5.443-20.698,9.213c-1.798,1.031-3.554,2.101-3.588,2.849C435.01,496.287,436.711,497.543,438.456,498.764z"
				/>
			<path fill="#C27033" d="M412.824,395.226c-0.007,0.893,1.104,1.99,3.719,3.673c10.535,6.772,22.553,9.355,32.918,10.989
				c0.647,0.135,0.794,0.053,0.801,0.053c-0.005,0,0.087-0.17-0.073-0.882c-1.935-8.595-3.831-17.339-5.636-25.985
				c-0.119-0.581-0.266-0.918-0.45-1.035c-0.071-0.046-0.174-0.069-0.305-0.069c-0.124,0-0.275,0.021-0.45,0.064
				c-9.066,2.197-18.444,4.47-26.765,9.614C413.956,393.27,412.834,394.34,412.824,395.226z"/>
		</g>
		<path fill="#DFA63C" d="M403.841,170.743c3.721,6.244,7.075,12.661,9.314,19.61c-4.206,0.219-7.566-1.466-10.546-4.36
			c-4.527-4.393-8.646-9.043-10.989-15.014c3.287-0.425,6.591-0.746,9.851-1.325C402.705,169.434,403.277,169.795,403.841,170.743z
			 M713.426,248.029c-0.56,1.249-1.671,1.133-2.764,1.162c-8.614,0.236-17.222-0.168-25.854,0.408
			c-8.567,0.572-17.144,1.038-25.712,1.683c-10.96,0.824-21.901,1.785-32.791,3.275c-9.64,1.318-19.309,2.435-28.921,3.922
			c-11.286,1.747-22.587,3.453-33.77,5.818c-10.847,2.294-21.747,4.361-32.305,7.855c-1.628,0.538-2.119,1.009-1.359,2.82
			c7.943,18.93,15.788,37.9,23.641,56.869c3.737,9.028,7.374,18.099,11.203,27.087c0.813,1.908,0.427,2.5-1.465,2.826
			c-2.548,0.438-5.076,1.028-7.599,1.616c-12.289,2.867-24.761,4.49-37.307,5.675c-4.084,0.386-8.145,1.019-12.225,1.446
			c-1.552,0.161-1.641,0.76-1.23,2.1c1.862,6.079,3.733,12.16,5.376,18.299c1.483,5.519,3.655,10.859,4.44,16.568
			c2.92,1.951,4.938,4.841,7.498,7.169c0.505,0.459,0.884,1.382,1.676,1.127c0.856-0.278,0.836-1.26,0.969-2.041
			c0.367-2.16,0.459-4.38,1.343-6.772c1.637,2.245,3.11,4.252,4.566,6.272c0.264,0.365,0.505,0.884,0.98,0.792
			c0.629-0.122,0.613-0.755,0.696-1.292c0.459-3.067,0.328-6.217,1.23-9.679c1.642,3.024,3.063,5.691,4.536,8.326
			c0.358,0.636,0.446,1.867,1.474,1.55c0.776-0.239,0.744-1.32,0.817-2.13c0.197-2.227,0.416-4.451,0.627-6.676
			c-1.499-5.45-2.881-10.936-4.557-16.332c-0.744-2.408-0.041-3.372,2.206-4.139c15.718-5.367,31.387-10.875,47.112-16.219
			c2.14-0.725,2.716-1.364,1.963-3.719c-6.644-20.777-13.127-41.606-19.656-62.42c-1.18-3.767-1.132-3.883,2.759-4.972
			c27.929-7.814,55.588-16.506,83.141-25.543c19.456-6.381,38.632-13.542,57.796-20.742
			C712.753,249.721,714.48,249.812,713.426,248.029z M390.033,169.864c6.51-1.275,13.049-2.424,19.527-3.852
			c10.326-2.277,20.615-4.729,30.675-8.042c-0.716,0.025-1.444-0.026-2.144,0.088c-7.319,1.197-14.656,2.067-22.098,2.09
			c-7.622,0.022-15.209-0.907-22.838-0.592c-3.379,0.138-3.811,0.761-3.411,4.027C389.991,165.639,390.878,167.734,390.033,169.864z
			 M240.787,399.613c2.725,1.207,5.648,1.988,8.601,0.707c9.928-4.309,17.518-11.336,23.377-20.331
			c0.957-1.472,0.203-1.827-1.233-1.807c-2.688,0.035-5.359,0.324-8.03,0.466c-7.159,0.384-14.346,0.354-21.508,0.45
			c-8.879,0.12-17.847-0.264-26.622-2.723C221.658,386.656,229.8,394.73,240.787,399.613z M386.869,459.907
			c5.932-8.898,11.506-18.009,15.629-27.929c0.193-0.466,0.542-0.872,0.861-1.371c0.964,0.583,0.611,1.26,0.415,1.906
			c-0.934,3.108-2.296,6.035-3.77,8.914c-6.74,13.182-14.699,25.509-25.227,36.037c4.181-0.739,7.521-3.292,11.141-5.216
			c6.662-3.545,13.166-7.323,18.333-13.003c2.259-2.479,3.724-5.177,3.604-8.673c-0.156-4.568,0.221-9.153-0.583-13.691
			c-0.702-3.955-1.185-7.971-2.943-11.658c-0.415-0.87-0.79-2.006-1.94-2.004c-1.003,0.002-1.368,1.028-1.786,1.821
			c-3.556,6.749-7.064,13.524-10.677,20.243c-3.567,6.63-7.259,13.191-11.226,19.603c-2.771,4.483-5.854,8.79-8.157,13.56
			C376.869,473.043,382.264,466.808,386.869,459.907z M400.501,596.776c-8.99,0.23-17.989,0.145-26.981,0.012
			c-7.427-0.11-14.828-0.884-22.096-2.353c-18.393-3.719-36.058-9.917-53.687-16.224c-15.241-5.454-30.318-11.407-46.716-12.84
			c-8.59-0.751-16.941-0.227-25.273,1.845c-8.495,2.112-16.191,6.286-24.357,9.256c-12.89,4.688-25.813,5.477-38.9,1.262
			c-6.777-2.183-12.498-6.175-17.552-11.148c0.047,0.264,0.033,0.555,0.149,0.783c6.825,13.184,16.057,24.04,29.678,30.645
			c0.371,0.181,0.869,0.289,0.821,1.088c-1.872,0.496-4.377-1.965-5.796,0.96c7.47,0.087,12.708,3.623,15.659,10.409
			c1.746,4.013,2.997,8.199,2.648,12.682c0.001,0,0.001,0.001,0.001,0.002c6.019-4.298,12.109-8.517,16.986-14.713
			c-3.574-0.491-6.682-0.805-9.742-1.372c-3.437-0.641-6.833-1.497-10.24-2.296c-0.496-0.115-1.141-0.358-1.004-1.033
			c0.142-0.705,0.813-0.546,1.325-0.496c0.444,0.046,0.884,0.156,1.319,0.266c8.923,2.252,18.029,3.072,27.184,3.639
			c10.795,0.668,21.569,0.402,32.313-0.659c7.449-0.735,14.866-1.809,22.297-2.732c-0.014-0.246-0.026-0.491-0.039-0.737
			c-5.281,0-10.562,0-15.844,0c0.224-0.579,0.438-0.73,0.667-0.753c14.138-1.449,28.203-0.668,42.134,1.894
			c15.532,2.86,30.983,6.166,46.494,9.128c19.339,3.696,38.687,4.061,58.113,0.317c18.446-3.554,33.26-12.512,43.866-28.154
			c-1.107,0.574-2.218,1.136-3.315,1.717C428.063,593.807,414.521,596.415,400.501,596.776z M153.342,155.39
			c0.937-1.311,1.877-2.619,2.814-3.929c-8.366-0.587-16.272-3.106-24.078-5.923c-4.441-1.601-8.75-3.571-13.119-5.375
			c8.687,6.56,17.939,12.181,27.794,16.811C150.834,158.893,150.818,158.926,153.342,155.39z M408.906,613.346
			c-7.266,2.08-14.676,3.308-22.188,4.114c-7.893,0.849-15.787,0.427-23.682,0.51c1.403,0.893,2.98,0.516,4.445,0.436
			c7.048-0.376,13.478,1.051,18.806,5.982c2.392,2.211,5.307,4.027,5.932,7.617c7.284-5.2,13.159-11.781,18.747-18.792
			C410.067,612.843,409.505,613.176,408.906,613.346z"/>
		<g>
			<path fill="#FFFFFF" d="M319.86,214.713c-5.424,0.077-9.673,4.494-9.673,10.055c0.001,2.723,0.72,4.816,2.135,6.224
				c1.341,1.333,3.271,2.009,5.74,2.009c0.024,0,0.048,0,0.071,0c6.011-0.03,9.731-3.882,9.71-10.054
				c-0.01-2.321-0.893-4.458-2.484-6.02C323.876,215.47,321.935,214.631,319.86,214.713z"/>
			<path fill="#FFFFFF" d="M175.685,213.188c-0.22-0.032-0.442-0.048-0.663-0.048c-1.535,0-3.062,0.769-4.278,2.174
				c-2.407,2.785-2.836,7.899-0.917,10.946c1.004,1.594,2.402,2.577,3.935,2.765c1.494,0.182,3.022-0.403,4.323-1.649
				c1.983-1.9,2.8-3.654,2.646-5.69c-0.096-1.773-0.241-3.486-0.947-5.062C178.92,214.696,177.426,213.444,175.685,213.188z"/>
		</g>
		<g>
			<path fill="#EF5C33" d="M128.201,259.955c-1.094,2.398-2.319,4.775-3.503,7.073c-0.691,1.34-1.382,2.68-2.05,4.029
				c-2.428,4.9-3.299,9.162-2.741,13.414c1.206,9.186,5.848,17.091,10.339,24.737l0.666,1.134c0.371,0.634,0.492,0.577,0.521,0.576
				c0.083,0,0.289-0.085,0.795-0.584c1.331-1.313,2.312-2.773,2.999-4.463c2.298-5.654,3.374-11.824,3.289-18.861
				c0.13-5.916-0.823-12.036-2.753-17.717c-1.436-4.225-3.253-7.284-5.719-9.627c-0.468-0.445-0.817-0.67-1.04-0.67
				c-0.02,0-0.038,0.002-0.055,0.006C128.846,259.021,128.566,259.154,128.201,259.955z"/>
			<path fill="#EF5C33" d="M361.84,271.756c-0.14-0.002-0.285-0.003-0.425-0.003c-15.34,0-28.114,12.117-28.572,27.204
				c-0.236,7.759,2.548,15.038,7.841,20.492c5.329,5.494,12.767,8.643,20.407,8.643c0.005,0,0.007,0,0.009,0
				c15.746,0.132,28.68-12.163,28.873-27.531C390.171,284.641,377.813,271.989,361.84,271.756z"/>
		</g>
	</g>
</g>
<g>
</g>
<g>
</g>
<g>
</g>
<g>
</g>
<g>
</g>
</svg>
